<svg fill="#EA2D2E" role="img" viewBox="0 0 24 24" xmlns="http://www.w3.org/2000/svg">
  <title>Java</title>
  <path d="M14.07 1.83a.18.18 0 00-.176.136c-.198.784.227 1.54.49 2.057.267.518.528.986.37 1.748-.058.29-.186.534-.368.733-.183.197-.433.327-.724.366-.583.078-1.076-.197-1.397-.564-.321-.367-.48-.888-.471-1.488a.18.18 0 00-.18-.182h-.91c-.098 0-.178.078-.18.176-.046.995.213 1.93.792 2.6.58.67 1.456.992 2.459.857.502-.067.954-.265 1.306-.576.352-.312.594-.733.682-1.229.215-1.229-.272-2.115-.595-2.744-.321-.63-.519-1.03-.316-1.57a.18.18 0 00-.172-.224zm-5.046-1.83a.18.18 0 00-.175.14c-.2.784.225 1.54.49 2.057.266.518.528.986.37 1.748-.06.29-.187.534-.37.733-.183.197-.432.327-.723.366-.583.078-1.077-.197-1.398-.564-.32-.367-.478-.888-.47-1.488a.18.18 0 00-.18-.182h-.91c-.097 0-.177.078-.18.176-.046.995.213 1.93.793 2.6.58.67 1.455.992 2.458.857.5-.067.954-.265 1.306-.576.353-.312.595-.733.682-1.229.215-1.229-.272-2.115-.595-2.744-.32-.63-.518-1.03-.315-1.57A.18.18 0 009.64.045c-.2-.03-.418-.045-.616-.045zm-2.65 10.22c-.053 0-.106.023-.141.066a7.273 7.273 0 00-1.474 4.148c-.027 1.46.402 2.656 1.186 3.447.785.79 1.884 1.184 3.125 1.184h6.05c1.242 0 2.34-.394 3.125-1.184.784-.79 1.213-1.987 1.186-3.447a7.273 7.273 0 00-1.474-4.148.18.18 0 00-.282.025c-.443.682-.99 1.206-1.637 1.554-.648.347-1.385.518-2.203.518H8.88c-.818 0-1.555-.17-2.203-.518-.647-.348-1.194-.872-1.637-1.554a.179.179 0 00-.14-.093c-.179-.01-.354-.017-.527-.017zm8.38 5.617c1.373 0 2.486 1.113 2.486 2.486 0 1.373-1.113 2.486-2.486 2.486H8.88c-1.373 0-2.486-1.113-2.486-2.486 0-1.373 1.113-2.486 2.486-2.486h6.373zm3.766 5.633s2.91 2.4-3.21 4.256c-11.64 3.526-48.45 4.59-58.67.141-3.67-1.6 3.22-3.82 5.39-4.288 2.26-.489 3.55-.4 3.55-.4-4.09-2.88-26.42 5.66-11.34 8.1 41.12 6.66 74.96-3 64.28-7.81z"/>
</svg>
